<svg width="76" height="76" viewBox="0 0 76 76" fill="none" xmlns="http://www.w3.org/2000/svg">
<circle cx="38" cy="38" r="38" fill="#FF5C00"/>
<path d="M21.3518 54L8.20381 22.65H13.8088L23.2898 46.514L32.7708 22.65H38.3758L25.2278 54H21.3518ZM43.5244 54V22.65H51.5804C53.8097 22.65 55.8807 23.049 57.7934 23.847C59.7061 24.645 61.3781 25.7597 62.8094 27.191C64.2534 28.6097 65.3744 30.2753 66.1724 32.188C66.9831 34.088 67.3884 36.14 67.3884 38.344C67.3884 40.548 66.9894 42.6 66.1914 44.5C65.3934 46.4 64.2724 48.0657 62.8284 49.497C61.3971 50.9157 59.7187 52.024 57.7934 52.822C55.8807 53.6073 53.8097 54 51.5804 54H43.5244ZM48.5024 49.535H51.0484C52.6191 49.535 54.0694 49.2563 55.3994 48.699C56.7421 48.1417 57.9074 47.3563 58.8954 46.343C59.8961 45.3297 60.6687 44.1453 61.2134 42.79C61.7707 41.422 62.0494 39.9337 62.0494 38.325C62.0494 36.729 61.7707 35.247 61.2134 33.879C60.6687 32.511 59.8961 31.3267 58.8954 30.326C57.9074 29.3127 56.7421 28.5273 55.3994 27.97C54.0694 27.4 52.6191 27.115 51.0484 27.115H48.5024V49.535Z" fill="#F9FAFB"/>
</svg>
