<svg width="32" height="32" viewBox="0 0 32 32" fill="none" xmlns="http://www.w3.org/2000/svg">
<path d="M28.2453 8.88532C27.8527 7.97633 27.2867 7.15261 26.5788 6.46028C25.8704 5.76588 25.0352 5.21405 24.1186 4.8348C23.1682 4.43998 22.1487 4.23789 21.1195 4.24025C19.6756 4.24025 18.2669 4.63564 17.0427 5.38248C16.7498 5.56114 16.4715 5.75737 16.208 5.97117C15.9444 5.75737 15.6661 5.56114 15.3732 5.38248C14.149 4.63564 12.7403 4.24025 11.2964 4.24025C10.2566 4.24025 9.24914 4.43941 8.29728 4.8348C7.37764 5.21554 6.54879 5.76323 5.83709 6.46028C5.12831 7.15183 4.56212 7.97574 4.1706 8.88532C3.7635 9.83132 3.55556 10.8359 3.55556 11.8698C3.55556 12.845 3.75472 13.8613 4.1501 14.8952C4.48106 15.7592 4.95552 16.6554 5.56178 17.5604C6.52243 18.9926 7.84331 20.4863 9.48344 22.0004C12.2014 24.5104 14.8929 26.2443 15.0071 26.3146L15.7013 26.7597C16.0088 26.956 16.4042 26.956 16.7117 26.7597L17.4058 26.3146C17.5201 26.2413 20.2087 24.5104 22.9295 22.0004C24.5697 20.4863 25.8906 18.9926 26.8512 17.5604C27.4575 16.6554 27.9349 15.7592 28.2629 14.8952C28.6583 13.8613 28.8574 12.845 28.8574 11.8698C28.8604 10.8359 28.6524 9.83132 28.2453 8.88532Z" fill="#CCCCCC"/>
</svg>
