<svg width="110" height="110" viewBox="0 0 110 110" fill="none" xmlns="http://www.w3.org/2000/svg">
<path d="M110 0H62L0 62V110L110 0Z" fill="#FF5C00"/>
<path d="M20.8035 57.5902L23.2517 59.984L26.2831 56.8838L27.5129 58.0862L24.4815 61.1865L27.8506 64.4808L26.3405 66.0252L18.0694 57.9377L23.1702 52.7211L24.3942 53.918L20.8035 57.5902ZM32.0433 52.9723C31.8603 52.7934 31.6626 52.6523 31.4502 52.5491C31.2378 52.4383 31.0202 52.3747 30.7975 52.3584C30.5748 52.342 30.3508 52.3804 30.1256 52.4734C29.9002 52.5589 29.685 52.7065 29.48 52.9163C29.081 53.3243 28.8822 53.7603 28.8837 54.2241C28.8888 54.6842 29.0733 55.1554 29.437 55.6379L32.0433 52.9723ZM30.2613 56.4998C30.5849 56.7715 30.8983 56.9735 31.2015 57.1059C31.5009 57.2345 31.7902 57.3011 32.0693 57.3055C32.3447 57.3062 32.6099 57.2485 32.8651 57.1325C33.1201 57.0089 33.3595 56.8328 33.5832 56.604C33.807 56.3752 33.9723 56.1527 34.0792 55.9365C34.1899 55.7165 34.2725 55.5138 34.327 55.3284C34.3852 55.1392 34.4324 54.9727 34.4685 54.829C34.5083 54.6814 34.5711 54.5638 34.6569 54.4761C34.7724 54.3579 34.9021 54.3131 35.0457 54.3416L35.9576 54.4389C35.9878 54.7742 35.9707 55.1006 35.9064 55.4181C35.8382 55.7319 35.7379 56.0329 35.6054 56.321C35.4727 56.6016 35.3135 56.8674 35.1278 57.1184C34.9458 57.3656 34.7541 57.5921 34.5527 57.7981C34.1538 58.2061 33.716 58.5203 33.2395 58.7406C32.7592 58.9572 32.2607 59.0665 31.744 59.0685C31.2236 59.0668 30.6961 58.9502 30.1618 58.7186C29.6236 58.4832 29.0971 58.1139 28.5823 57.6105C28.1819 57.219 27.8696 56.7869 27.6456 56.3142C27.4177 55.8378 27.2916 55.3527 27.2672 54.8589C27.2427 54.3576 27.3238 53.8588 27.5106 53.3627C27.7011 52.8627 28.0108 52.3935 28.4396 51.9549C28.8012 51.585 29.1941 51.3015 29.618 51.1044C30.042 50.9073 30.4784 50.8081 30.9271 50.8069C31.3721 50.8019 31.822 50.8986 32.2768 51.0972C32.7315 51.2882 33.1705 51.5906 33.5938 52.0045C33.8074 52.2133 33.9299 52.3779 33.9614 52.4982C33.9891 52.6148 33.9396 52.738 33.8128 52.8676L30.2613 56.4998ZM38.457 48.6214C38.0771 49.0481 37.7778 49.4267 37.559 49.7573C37.3363 50.0842 37.183 50.3706 37.0991 50.6167C37.0151 50.8628 36.9911 51.0743 37.027 51.2511C37.0629 51.428 37.1438 51.5779 37.2696 51.701C37.5175 51.9433 37.7657 52.0443 38.0141 52.0038C38.2663 51.9594 38.508 51.8191 38.7392 51.5826C39.0226 51.2928 39.2153 50.9927 39.3174 50.6823C39.4195 50.3644 39.4625 49.9999 39.4466 49.589L38.457 48.6214ZM32.746 49.3701C32.7882 48.0911 33.2735 46.9768 34.2019 46.0273C34.5375 45.6841 34.8949 45.4331 35.274 45.2742C35.6493 45.1116 36.0294 45.0356 36.4142 45.0464C36.7952 45.0534 37.1715 45.1454 37.5431 45.3222C37.9184 45.4953 38.272 45.744 38.6037 46.0684L42.3103 49.6926L41.6839 50.3333C41.5534 50.4667 41.4336 50.5511 41.3247 50.5862C41.2119 50.6177 41.0739 50.5947 40.9109 50.5173L40.3646 50.2293C40.3526 50.5085 40.3292 50.769 40.2942 51.0108C40.2553 51.2488 40.1957 51.4777 40.1152 51.6973C40.0347 51.917 39.9258 52.1313 39.7886 52.3402C39.659 52.5491 39.4916 52.7584 39.2865 52.9682C39.0442 53.216 38.788 53.4132 38.5181 53.5595C38.2444 53.7021 37.9662 53.7844 37.6836 53.8065C37.401 53.8285 37.1195 53.7845 36.8392 53.6745C36.5589 53.5645 36.2872 53.3809 36.0241 53.1236C35.8753 52.9782 35.7528 52.8099 35.6563 52.6186C35.5561 52.4236 35.4933 52.2056 35.4679 51.9645C35.4463 51.7196 35.4641 51.4497 35.5211 51.1549C35.5781 50.8601 35.6896 50.5401 35.8554 50.1951C36.025 49.8462 36.2527 49.4721 36.5386 49.0729C36.8207 48.67 37.1742 48.2398 37.599 47.7825L37.2558 47.4469C36.863 47.0629 36.4912 46.8634 36.1403 46.8485C35.7856 46.8298 35.4534 46.9787 35.144 47.2953C34.9203 47.5241 34.7605 47.7408 34.6648 47.9456C34.5727 48.1465 34.5051 48.3377 34.4619 48.5192C34.4148 48.697 34.3714 48.8597 34.3316 49.0072C34.2955 49.1509 34.2215 49.28 34.1096 49.3944C34.0127 49.4935 33.9059 49.5532 33.7892 49.5734C33.6687 49.5898 33.5536 49.5854 33.444 49.5603L32.746 49.3701ZM45.5392 46.5735C45.0396 47.0845 44.5125 47.3374 43.9581 47.3323C43.4035 47.3197 42.8726 47.0654 42.3655 46.5695L39.0879 43.3647L38.5006 43.9653C38.4261 44.0416 38.3379 44.0822 38.2361 44.0871C38.1343 44.092 38.0339 44.046 37.9347 43.9491L37.3742 43.4009L38.1426 42.3061L36.8318 40.4427C36.7742 40.349 36.7505 40.255 36.7607 40.1606C36.771 40.0662 36.8171 39.977 36.8992 39.8932L37.6151 39.161L39.4626 40.9675L40.9951 39.4002L42.0018 40.3846L40.4694 41.9519L43.6497 45.0616C43.8327 45.2406 44.0186 45.3365 44.2073 45.3495C44.3998 45.3586 44.5724 45.285 44.7253 45.1287C44.8111 45.041 44.8724 44.9592 44.9093 44.8834C44.946 44.8 44.9735 44.7261 44.9916 44.6618C45.0135 44.5937 45.0317 44.5331 45.0462 44.4802C45.0568 44.4235 45.079 44.378 45.1125 44.3437C45.1535 44.3017 45.1985 44.2786 45.2475 44.2743C45.2927 44.2662 45.3511 44.2674 45.4229 44.2779L46.5232 44.5258C46.4935 44.8995 46.3919 45.2627 46.2186 45.6154C46.0453 45.9681 45.8189 46.2875 45.5392 46.5735ZM46.7723 33.3888L52.641 39.1272L51.7965 39.991C51.6138 40.1778 51.4124 40.2121 51.1923 40.0939L50.6282 39.7325C50.6374 40.2114 50.5765 40.6703 50.4457 41.1093C50.311 41.5445 50.0517 41.9585 49.6676 42.3513C49.3544 42.6716 49.0232 42.9035 48.6741 43.047C48.3249 43.1829 47.9691 43.2378 47.6067 43.2117C47.2444 43.1856 46.885 43.084 46.5284 42.907C46.1719 42.7224 45.8296 42.4698 45.5016 42.1492L41.7722 38.5025L43.1537 37.0897L46.8831 40.7363C47.2416 41.0868 47.6001 41.277 47.9587 41.3069C48.3173 41.3293 48.6587 41.1746 48.9831 40.8428C49.2218 40.5988 49.3921 40.3178 49.4941 39.9998C49.5923 39.6782 49.6393 39.3288 49.6351 38.9517L45.3908 34.8017L46.7723 33.3888ZM50.4634 31.6508C50.2915 31.1247 50.2295 30.6389 50.2773 30.1933C50.3213 29.744 50.5111 29.3477 50.8467 29.0045C51.1114 28.7338 51.383 28.5742 51.6616 28.5258L52.6303 29.6521C52.6803 29.7382 52.7019 29.8153 52.6951 29.8833C52.6882 29.9437 52.655 30.0044 52.5953 30.0654C52.5394 30.1226 52.446 30.1991 52.315 30.2949C52.1878 30.3868 52.072 30.4862 51.9676 30.5929C51.8148 30.7493 51.7016 30.9108 51.628 31.0776C51.5544 31.2444 51.513 31.4202 51.5038 31.6051C51.4945 31.7825 51.5135 31.969 51.561 32.1645C51.6122 32.3563 51.6843 32.5611 51.7772 32.7788L55.3923 36.3135L54.0108 37.7264L48.1421 31.988L48.953 31.1586C49.0947 31.0137 49.2202 30.9387 49.3296 30.9337C49.4351 30.925 49.5639 30.9763 49.716 31.0878L50.4634 31.6508ZM58.1075 26.3162C57.9244 26.1372 57.7267 25.9961 57.5144 25.8929C57.3019 25.7821 57.0843 25.7186 56.8616 25.7022C56.6389 25.6859 56.415 25.7242 56.1897 25.8172C55.9644 25.9027 55.7492 26.0504 55.5441 26.2601C55.1451 26.6681 54.9464 27.1041 54.9478 27.568C54.953 28.028 55.1374 28.4993 55.5011 28.9817L58.1075 26.3162ZM56.3254 29.8437C56.6491 30.1153 56.9625 30.3174 57.2657 30.4497C57.5651 30.5784 57.8543 30.6449 58.1335 30.6493C58.4088 30.65 58.6741 30.5923 58.9292 30.4763C59.1843 30.3528 59.4237 30.1766 59.6474 29.9478C59.8711 29.719 60.0365 29.4965 60.1434 29.2803C60.2541 29.0603 60.3367 28.8576 60.3911 28.6722C60.4494 28.483 60.4965 28.3165 60.5326 28.1728C60.5725 28.0253 60.6352 27.9076 60.721 27.8199C60.8366 27.7017 60.9662 27.6569 61.1098 27.6854L62.0217 27.7827C62.0519 28.118 62.0348 28.4444 61.9705 28.762C61.9024 29.0758 61.802 29.3767 61.6695 29.6648C61.5369 29.9454 61.3777 30.2112 61.1919 30.4622C61.0099 30.7094 60.8182 30.936 60.6169 31.1419C60.2179 31.5499 59.7802 31.8641 59.3037 32.0844C58.8234 32.301 58.3249 32.4103 57.8082 32.4124C57.2877 32.4107 56.7603 32.294 56.2259 32.0624C55.6877 31.8271 55.1612 31.4577 54.6464 30.9544C54.246 30.5628 53.9338 30.1307 53.7097 29.6581C53.4819 29.1816 53.3557 28.6965 53.3313 28.2027C53.3068 27.7014 53.388 27.2027 53.5748 26.7065C53.7653 26.2065 54.0749 25.7373 54.5037 25.2987C54.8654 24.9288 55.2582 24.6453 55.6822 24.4482C56.1061 24.2511 56.5425 24.1519 56.9913 24.1507C57.4363 24.1457 57.8862 24.2425 58.341 24.441C58.7957 24.632 59.2347 24.9345 59.658 25.3484C59.8715 25.5572 59.9941 25.7217 60.0256 25.8421C60.0533 25.9587 60.0038 26.0818 59.877 26.2114L56.3254 29.8437ZM63.2269 19.5585C62.8758 19.5285 62.567 19.5697 62.3005 19.6821C62.0377 19.7906 61.8001 19.9536 61.5876 20.1709C61.3787 20.3845 61.2305 20.6162 61.1428 20.8661C61.0551 21.116 61.0335 21.3821 61.0782 21.6645C61.119 21.9431 61.2336 22.2379 61.4219 22.5488C61.6064 22.856 61.8683 23.1755 62.2077 23.5074C62.5509 23.843 62.8687 24.1015 63.1612 24.283C63.4535 24.457 63.7263 24.5671 63.9795 24.6133C64.2289 24.6557 64.4606 24.6361 64.6747 24.5545C64.8849 24.4692 65.0796 24.335 65.2585 24.152C65.5456 23.8584 65.7289 23.5489 65.8082 23.2237C65.8875 22.8984 65.9041 22.5343 65.8581 22.1313L63.2269 19.5585ZM60.4785 14.1075L68.9785 22.4187L68.1339 23.2824C67.9512 23.4693 67.7499 23.5036 67.5298 23.3854L66.846 22.9518C66.8856 23.453 66.8383 23.94 66.7041 24.413C66.5735 24.8821 66.3088 25.3207 65.9098 25.7287C65.5966 26.049 65.2428 26.2774 64.8483 26.4138C64.4539 26.5502 64.0357 26.5927 63.5939 26.541C63.1519 26.4819 62.6919 26.323 62.2138 26.0644C61.7394 25.8019 61.262 25.4358 60.7815 24.966C60.3468 24.5409 60.0004 24.0866 59.7422 23.603C59.4841 23.1193 59.3259 22.6327 59.2676 22.1431C59.2093 21.6534 59.2549 21.1796 59.4044 20.7216C59.5501 20.2598 59.8112 19.8364 60.1878 19.4512C60.5085 19.1233 60.834 18.8933 61.1644 18.7614C61.4948 18.6294 61.8372 18.5577 62.1916 18.5462L59.0971 15.5204L60.4785 14.1075Z" fill="white"/>
<path d="M110 16V0L94 16H110Z" fill="#7B330A"/>
<path d="M16 110V94L0 110H16Z" fill="#7B330A"/>
</svg>
