<svg width="28" height="28" viewBox="0 0 28 28" fill="none" xmlns="http://www.w3.org/2000/svg">
<circle opacity="0.7" cx="14" cy="14" r="14" fill="white"/>
<path d="M20.4219 10.4312C20.2124 9.94631 19.9104 9.50686 19.5328 9.1375C19.1549 8.76704 18.7093 8.47264 18.2203 8.27032C17.7132 8.05968 17.1694 7.95186 16.6203 7.95313C15.85 7.95313 15.0984 8.16407 14.4453 8.5625C14.2891 8.65781 14.1406 8.7625 14 8.87656C13.8594 8.7625 13.7109 8.65781 13.5547 8.5625C12.9016 8.16407 12.15 7.95313 11.3797 7.95313C10.825 7.95313 10.2875 8.05938 9.77969 8.27032C9.28906 8.47344 8.84687 8.76563 8.46719 9.1375C8.08906 9.50644 7.787 9.946 7.57812 10.4312C7.36094 10.9359 7.25 11.4719 7.25 12.0234C7.25 12.5437 7.35625 13.0859 7.56719 13.6375C7.74375 14.0984 7.99687 14.5766 8.32031 15.0594C8.83281 15.8234 9.5375 16.6203 10.4125 17.4281C11.8625 18.7672 13.2984 19.6922 13.3594 19.7297L13.7297 19.9672C13.8938 20.0719 14.1047 20.0719 14.2688 19.9672L14.6391 19.7297C14.7 19.6906 16.1344 18.7672 17.5859 17.4281C18.4609 16.6203 19.1656 15.8234 19.6781 15.0594C20.0016 14.5766 20.2562 14.0984 20.4312 13.6375C20.6422 13.0859 20.7484 12.5437 20.7484 12.0234C20.75 11.4719 20.6391 10.9359 20.4219 10.4312Z" fill="#FF5C00"/>
</svg>
