<svg width="60" height="77" viewBox="0 0 60 77" fill="none" xmlns="http://www.w3.org/2000/svg">
<path d="M29.9999 38.5C39.1683 38.5 46.6008 30.1053 46.6008 19.75C46.6008 9.39466 39.1683 1 29.9999 1C20.8314 1 13.3989 9.39466 13.3989 19.75C13.3989 30.1053 20.8314 38.5 29.9999 38.5Z" stroke="white" stroke-width="2"/>
<path d="M46.601 46H47.7697C50.197 46.0008 52.5405 47.0026 54.36 48.8173C56.1794 50.632 57.3496 53.1346 57.6506 55.855L58.9487 67.57C59.0655 68.6254 58.9822 69.6967 58.7044 70.7129C58.4265 71.7291 57.9605 72.667 57.3372 73.4642C56.7139 74.2615 55.9476 74.8999 55.0892 75.3371C54.2308 75.7743 53.2998 76.0002 52.3582 76H7.64183C6.70016 76.0002 5.76922 75.7743 4.91079 75.3371C4.05236 74.8999 3.28607 74.2615 2.66279 73.4642C2.0395 72.667 1.57347 71.7291 1.29563 70.7129C1.01779 69.6967 0.934483 68.6254 1.05125 67.57L2.34612 55.855C2.64725 53.1333 3.81835 50.6297 5.6392 48.8148C7.46004 47 9.80519 45.9989 12.2337 46H13.399" stroke="white" stroke-width="2" stroke-linecap="round" stroke-linejoin="round"/>
</svg>
