<svg width="44" height="50" viewBox="0 0 44 50" fill="none" xmlns="http://www.w3.org/2000/svg">
<g clip-path="url(#clip0_274_420)">
<path fill-rule="evenodd" clip-rule="evenodd" d="M6.92994 10.9844C7.46042 9.57813 8.3426 8.37984 9.467 7.5382C10.5914 6.69657 11.9085 6.24864 13.2549 6.25H30.7504C33.5004 6.25 35.9864 8.1125 37.0699 10.9844L39.2479 16.7594C39.4542 17.3063 39.8254 17.7563 40.2929 18.0219C41.6679 18.8031 42.6442 20.2563 42.9467 21.9656L43.8679 27.2125C43.9587 27.7156 44.0027 28.2281 44.0027 28.7438V30.0344C44.0027 32.5781 42.9302 34.8563 41.2527 36.275V42.1875C41.2527 42.6019 41.1078 42.9993 40.85 43.2924C40.5921 43.5854 40.2424 43.75 39.8777 43.75H34.3777C34.013 43.75 33.6633 43.5854 33.4054 43.2924C33.1475 42.9993 33.0027 42.6019 33.0027 42.1875V38.0063C29.4497 38.1563 25.4539 38.2813 22.0027 38.2813C18.5514 38.2813 14.5557 38.1563 11.0027 38.0063V42.1875C11.0027 42.6019 10.8578 42.9993 10.6 43.2924C10.3421 43.5854 9.99236 43.75 9.62769 43.75H4.12769C3.76301 43.75 3.41328 43.5854 3.15541 43.2924C2.89755 42.9993 2.75269 42.6019 2.75269 42.1875V36.275C1.07519 34.8563 0.00268555 32.5781 0.00268555 30.0344V28.7438C0.00314708 28.2295 0.0482827 27.7166 0.137436 27.2125L1.05869 21.9625C1.36119 20.2563 2.33744 18.8 3.70969 18.0219C4.17937 17.7551 4.55061 17.3078 4.75744 16.7594L6.93544 10.9844H6.92994ZM8.24994 31.25C8.97928 31.25 9.67875 30.9208 10.1945 30.3347C10.7102 29.7487 10.9999 28.9538 10.9999 28.125C10.9999 27.2962 10.7102 26.5013 10.1945 25.9153C9.67875 25.3292 8.97928 25 8.24994 25C7.52059 25 6.82112 25.3292 6.30539 25.9153C5.78967 26.5013 5.49994 27.2962 5.49994 28.125C5.49994 28.9538 5.78967 29.7487 6.30539 30.3347C6.82112 30.9208 7.52059 31.25 8.24994 31.25ZM35.7499 31.25C36.4793 31.25 37.1788 30.9208 37.6945 30.3347C38.2102 29.7487 38.4999 28.9538 38.4999 28.125C38.4999 27.2962 38.2102 26.5013 37.6945 25.9153C37.1788 25.3292 36.4793 25 35.7499 25C35.0206 25 34.3211 25.3292 33.8054 25.9153C33.2897 26.5013 32.9999 27.2962 32.9999 28.125C32.9999 28.9538 33.2897 29.7487 33.8054 30.3347C34.3211 30.9208 35.0206 31.25 35.7499 31.25ZM16.4999 25C15.7706 25 15.0711 25.3292 14.5554 25.9153C14.0397 26.5013 13.7499 27.2962 13.7499 28.125C13.7499 28.9538 14.0397 29.7487 14.5554 30.3347C15.0711 30.9208 15.7706 31.25 16.4999 31.25H27.4999C28.2293 31.25 28.9288 30.9208 29.4445 30.3347C29.9602 29.7487 30.2499 28.9538 30.2499 28.125C30.2499 27.2962 29.9602 26.5013 29.4445 25.9153C28.9288 25.3292 28.2293 25 27.4999 25H16.4999ZM7.99144 16.2156L10.6204 10.2375C10.7347 9.97829 10.9103 9.76034 11.1273 9.60801C11.3444 9.45569 11.5945 9.37501 11.8497 9.375H32.1502C32.4053 9.37501 32.6554 9.45569 32.8725 9.60801C33.0896 9.76034 33.2651 9.97829 33.3794 10.2375L36.0084 16.2156C36.1159 16.4677 36.1631 16.7475 36.1451 17.0268C36.1272 17.3061 36.0447 17.5752 35.9062 17.8068C35.7676 18.0384 35.5777 18.2244 35.3558 18.3461C35.1338 18.4678 34.8875 18.5209 34.6417 18.5C32.1392 18.2719 25.4292 17.9688 21.9999 17.9688C18.5707 17.9688 11.8579 18.2719 9.35819 18.5C9.1124 18.5209 8.86611 18.4678 8.64412 18.3461C8.42213 18.2244 8.23228 18.0384 8.09371 17.8068C7.95513 17.5752 7.87271 17.3061 7.85475 17.0268C7.8368 16.7475 7.88394 16.4677 7.99144 16.2156Z" fill="#FF5C00" fill-opacity="0.35"/>
</g>
<defs>
<clipPath id="clip0_274_420">
<rect width="44" height="50" fill="white"/>
</clipPath>
</defs>
</svg>
