<svg width="24" height="24" viewBox="0 0 24 24" fill="none" xmlns="http://www.w3.org/2000/svg">
<g clip-path="url(#clip0_103_324)">
<path d="M12.0057 6.60934C8.59856 6.60934 5.85035 9.01403 5.85035 11.9953C5.85035 14.9765 8.59856 17.3812 12.0057 17.3812C15.4128 17.3812 18.1611 14.9765 18.1611 11.9953C18.1611 9.01403 15.4128 6.60934 12.0057 6.60934ZM12.0057 15.4968C9.80392 15.4968 8.00392 13.9265 8.00392 11.9953C8.00392 10.064 9.79856 8.49371 12.0057 8.49371C14.2128 8.49371 16.0075 10.064 16.0075 11.9953C16.0075 13.9265 14.2075 15.4968 12.0057 15.4968ZM19.8486 6.38903C19.8486 7.08746 19.2057 7.64528 18.4128 7.64528C17.6146 7.64528 16.9771 7.08278 16.9771 6.38903C16.9771 5.69528 17.62 5.13278 18.4128 5.13278C19.2057 5.13278 19.8486 5.69528 19.8486 6.38903ZM23.9253 7.66403C23.8343 5.98121 23.395 4.49059 21.9861 3.26246C20.5825 2.03434 18.8789 1.64996 16.9557 1.56559C14.9736 1.46715 9.03249 1.46715 7.05035 1.56559C5.13249 1.64528 3.42892 2.02965 2.02 3.25778C0.61107 4.4859 0.177141 5.97653 0.0807128 7.65934C-0.0317871 9.39371 -0.0317871 14.5921 0.0807128 16.3265C0.171784 18.0093 0.61107 19.5 2.02 20.7281C3.42892 21.9562 5.12714 22.3406 7.05035 22.425C9.03249 22.5234 14.9736 22.5234 16.9557 22.425C18.8789 22.3453 20.5825 21.9609 21.9861 20.7281C23.3896 19.5 23.8289 18.0093 23.9253 16.3265C24.0378 14.5921 24.0378 9.3984 23.9253 7.66403ZM21.3646 18.1875C20.9468 19.1062 20.1378 19.814 19.0825 20.1843C17.5021 20.7328 13.7521 20.6062 12.0057 20.6062C10.2593 20.6062 6.50392 20.7281 4.92892 20.1843C3.87892 19.8187 3.07 19.1109 2.64678 18.1875C2.02 16.8047 2.16464 13.5234 2.16464 11.9953C2.16464 10.4672 2.02535 7.18121 2.64678 5.80309C3.06464 4.88434 3.87357 4.17653 4.92892 3.80621C6.50928 3.25778 10.2593 3.38434 12.0057 3.38434C13.7521 3.38434 17.5075 3.26246 19.0825 3.80621C20.1325 4.17184 20.9414 4.87965 21.3646 5.80309C21.9914 7.1859 21.8468 10.4672 21.8468 11.9953C21.8468 13.5234 21.9914 16.8093 21.3646 18.1875Z" fill="#FF5C00"/>
</g>
<defs>
<clipPath id="clip0_103_324">
<rect width="24" height="24" fill="white"/>
</clipPath>
</defs>
</svg>
