<svg width="37" height="34" viewBox="0 0 37 34" fill="none" xmlns="http://www.w3.org/2000/svg">
<g clip-path="url(#clip0_274_422)">
<path fill-rule="evenodd" clip-rule="evenodd" d="M34.6875 17C34.6875 13.0549 32.982 9.27139 29.9463 6.48179C26.9105 3.69218 22.7932 2.125 18.5 2.125C14.2068 2.125 10.0895 3.69218 7.05371 6.48179C4.01796 9.27139 2.3125 13.0549 2.3125 17C2.3125 20.9451 4.01796 24.7286 7.05371 27.5182C10.0895 30.3078 14.2068 31.875 18.5 31.875C22.7932 31.875 26.9105 30.3078 29.9463 27.5182C32.982 24.7286 34.6875 20.9451 34.6875 17ZM0 17C0 12.4913 1.9491 8.1673 5.41852 4.97918C8.88795 1.79107 13.5935 0 18.5 0C23.4065 0 28.1121 1.79107 31.5815 4.97918C35.0509 8.1673 37 12.4913 37 17C37 21.5087 35.0509 25.8327 31.5815 29.0208C28.1121 32.2089 23.4065 34 18.5 34C13.5935 34 8.88795 32.2089 5.41852 29.0208C1.9491 25.8327 0 21.5087 0 17ZM10.4062 18.0625C10.0996 18.0625 9.8055 17.9506 9.58866 17.7513C9.37182 17.552 9.25 17.2818 9.25 17C9.25 16.7182 9.37182 16.448 9.58866 16.2487C9.8055 16.0494 10.0996 15.9375 10.4062 15.9375H23.8026L18.8376 11.3773C18.7301 11.2785 18.6448 11.1612 18.5867 11.0321C18.5285 10.903 18.4985 10.7647 18.4985 10.625C18.4985 10.4853 18.5285 10.347 18.5867 10.2179C18.6448 10.0888 18.7301 9.97154 18.8376 9.87275C18.9451 9.77396 19.0728 9.6956 19.2132 9.64214C19.3537 9.58867 19.5042 9.56116 19.6562 9.56116C19.8083 9.56116 19.9588 9.58867 20.0993 9.64214C20.2397 9.6956 20.3674 9.77396 20.4749 9.87275L27.4124 16.2477C27.5201 16.3464 27.6055 16.4637 27.6638 16.5928C27.7221 16.7219 27.7521 16.8602 27.7521 17C27.7521 17.1398 27.7221 17.2781 27.6638 17.4072C27.6055 17.5363 27.5201 17.6536 27.4124 17.7523L20.4749 24.1273C20.2578 24.3268 19.9633 24.4388 19.6562 24.4388C19.3492 24.4388 19.0547 24.3268 18.8376 24.1273C18.6205 23.9277 18.4985 23.6571 18.4985 23.375C18.4985 23.0929 18.6205 22.8223 18.8376 22.6227L23.8026 18.0625H10.4062Z" fill="#FF5C00" fill-opacity="0.35"/>
</g>
<defs>
<clipPath id="clip0_274_422">
<rect width="37" height="34" fill="white" transform="translate(37 34) rotate(180)"/>
</clipPath>
</defs>
</svg>
