<svg width="24" height="24" viewBox="0 0 24 24" fill="none" xmlns="http://www.w3.org/2000/svg">
<g clip-path="url(#clip0_103_360)">
<path fill-rule="evenodd" clip-rule="evenodd" d="M19.5 13.35C19.65 14.25 19.8 15 20.1 15.9L21 18.45L20.25 19.5H15C15 20.25 14.7 21 14.1 21.6C13.5 22.2 12.75 22.5 12 22.5C11.25 22.5 10.35 22.2 9.9 21.6C9.3 21 9 20.25 9 19.5H3.75L3 18.45L3.9 15.9C4.2 14.7 4.5 13.5 4.5 12.3V9C4.5 7.95 4.65 6.9 5.1 6C5.55 4.95 6.15 4.2 6.9 3.45C7.65 2.7 8.55 2.25 9.6 1.95C10.35 1.65 11.25 1.5 12 1.5C11.7 1.95 11.4 2.55 11.1 3.15C10.8 3.15 10.5 3.15 10.05 3.45C9.3 3.6 8.55 4.05 7.95 4.65C7.35 5.1 6.75 5.85 6.45 6.6C6.15 7.35 6 8.1 6 9V12.3C6 13.65 5.7 15 5.4 16.35L4.8 18H19.2L18.6 16.35C18.3375 15.561 18.189 14.655 18.0555 13.839L18 13.5C18.6 13.5 19.05 13.5 19.5 13.35ZM12 21C12.3 21 12.75 20.85 13.05 20.55C13.35 20.25 13.5 19.95 13.5 19.5H10.5C10.5 19.95 10.65 20.25 10.95 20.55C11.25 20.85 11.7 21 12 21ZM22.5 6C22.5 7.19347 22.0259 8.33807 21.182 9.18198C20.3381 10.0259 19.1935 10.5 18 10.5C16.8065 10.5 15.6619 10.0259 14.818 9.18198C13.9741 8.33807 13.5 7.19347 13.5 6C13.5 4.80653 13.9741 3.66193 14.818 2.81802C15.6619 1.97411 16.8065 1.5 18 1.5C19.1935 1.5 20.3381 1.97411 21.182 2.81802C22.0259 3.66193 22.5 4.80653 22.5 6Z" fill="#040415"/>
<circle cx="18" cy="6" r="6" fill="#FC6828" stroke="#F9FAFB" stroke-width="2"/>
</g>
<defs>
<clipPath id="clip0_103_360">
<rect width="24" height="24" fill="white"/>
</clipPath>
</defs>
</svg>
