<svg width="163" height="164" viewBox="0 0 163 164" fill="none" xmlns="http://www.w3.org/2000/svg">
<ellipse cx="81.5" cy="82" rx="81.5" ry="82" fill="white"/>
<path d="M113.358 53.8756L113.358 53.876C115.51 55.9938 117.231 58.5136 118.425 61.2945C119.663 64.1883 120.294 67.2598 120.286 70.4215V70.423C120.286 73.4025 119.681 76.518 118.472 79.6991L118.471 79.7002C117.468 82.358 116.005 85.1248 114.139 87.9277C111.182 92.3623 107.108 97.0003 102.035 101.713C93.6161 109.527 85.2941 114.917 84.9493 115.139L84.9492 115.139L82.7944 116.53C82.0039 117.037 80.987 117.037 80.1965 116.53L78.0418 115.139L78.0418 115.139L78.0339 115.134C77.6981 114.926 69.3669 109.528 60.956 101.713L60.9559 101.713C55.8828 97.0003 51.8087 92.3623 48.8523 87.9277C46.9867 85.1258 45.5317 82.3585 44.5192 79.6991C43.3101 76.518 42.7054 73.4025 42.7054 70.423C42.7054 67.2601 43.3374 64.1879 44.5752 61.294C45.7655 58.5116 47.4868 55.9915 49.6414 53.8764L49.6421 53.8758C51.8069 51.7425 54.3273 50.067 57.124 48.902L57.1246 48.9017C60.0189 47.6921 63.0823 47.0826 66.246 47.0826C70.6383 47.0826 74.9229 48.2926 78.6461 50.5779L78.9077 50.1518L78.6461 50.5779C79.5369 51.1246 80.3827 51.7249 81.1839 52.3787L81.5 52.6367L81.8161 52.3787C82.6173 51.7249 83.4632 51.1246 84.3539 50.5779L84.1142 50.1873L84.3539 50.5779C88.0771 48.2926 92.3617 47.0826 96.754 47.0826L96.7551 47.0826C99.8849 47.0753 102.985 47.6937 105.875 48.9017L105.876 48.902C108.663 50.0623 111.203 51.7508 113.358 53.8756Z" stroke="#040415"/>
</svg>
