<svg width="39" height="40" viewBox="0 0 39 40" fill="none" xmlns="http://www.w3.org/2000/svg">
<path d="M19.5075 14.554C18.1315 14.554 16.8429 15.0726 15.8673 16.0203C14.8963 16.9681 14.3578 18.2199 14.3578 19.5566C14.3578 20.8933 14.8963 22.145 15.8673 23.0928C16.8429 24.0361 18.1315 24.5591 19.5075 24.5591C20.8835 24.5591 22.172 24.0361 23.1477 23.0928C24.1187 22.145 24.6571 20.8933 24.6571 19.5566C24.6571 18.2199 24.1187 16.9681 23.1477 16.0203C22.6711 15.5539 22.104 15.184 21.4791 14.9323C20.8541 14.6806 20.184 14.552 19.5075 14.554ZM38.4815 25.0822L35.4718 22.5832C35.6145 21.7337 35.6881 20.8664 35.6881 20.0036C35.6881 19.1408 35.6145 18.269 35.4718 17.4241L38.4815 14.925C38.7089 14.736 38.8716 14.4841 38.9481 14.203C39.0245 13.9219 39.0111 13.6249 38.9095 13.3514L38.8681 13.2352C38.0398 10.9851 36.7987 8.89939 35.2049 7.07917L35.1221 6.98529C34.9286 6.76423 34.6706 6.60532 34.3823 6.5295C34.0939 6.45368 33.7887 6.46452 33.5068 6.56058L29.77 7.85258C28.3894 6.75282 26.8523 5.88552 25.1864 5.28199L24.4638 1.48647C24.4093 1.20054 24.2666 0.937492 24.0545 0.732272C23.8424 0.527051 23.5711 0.389373 23.2765 0.337529L23.1523 0.315176C20.7592 -0.105059 18.2373 -0.105059 15.8443 0.315176L15.72 0.337529C15.4255 0.389373 15.1542 0.527051 14.9421 0.732272C14.73 0.937492 14.5872 1.20054 14.5327 1.48647L13.8056 5.29988C12.1555 5.90822 10.6182 6.77341 9.25422 7.86152L5.48978 6.56058C5.20798 6.46376 4.90252 6.45253 4.614 6.52839C4.32547 6.60425 4.06754 6.76361 3.87448 6.98529L3.79164 7.07917C2.20069 8.90133 0.959897 10.9865 0.128447 13.2352L0.0870289 13.3514C-0.120061 13.9102 0.050213 14.5361 0.515015 14.925L3.56154 17.4509C3.41888 18.2914 3.34985 19.1497 3.34985 19.9992C3.34985 20.8575 3.41888 21.7159 3.56154 22.5474L0.524219 25.0733C0.29686 25.2623 0.134137 25.5142 0.0576863 25.7953C-0.0187643 26.0764 -0.00531974 26.3734 0.0962327 26.6469L0.137651 26.7631C0.970614 29.0119 2.19935 31.0907 3.80085 32.9191L3.88368 33.013C4.07722 33.2341 4.33516 33.393 4.62351 33.4688C4.91186 33.5446 5.2171 33.5338 5.49899 33.4377L9.26342 32.1368C10.6348 33.2321 12.1627 34.0994 13.8148 34.6984L14.5419 38.5118C14.5964 38.7978 14.7392 39.0608 14.9513 39.266C15.1634 39.4713 15.4347 39.6089 15.7292 39.6608L15.8535 39.6831C18.2701 40.1056 20.7449 40.1056 23.1615 39.6831L23.2857 39.6608C23.5803 39.6089 23.8516 39.4713 24.0637 39.266C24.2758 39.0608 24.4185 38.7978 24.473 38.5118L25.1956 34.7163C26.8615 34.1083 28.3986 33.2455 29.7792 32.1457L33.516 33.4377C33.7978 33.5345 34.1032 33.5458 34.3918 33.4699C34.6803 33.3941 34.9382 33.2347 35.1313 33.013L35.2141 32.9191C36.8156 31.0817 38.0444 29.0119 38.8773 26.7631L38.9187 26.6469C39.1166 26.0926 38.9464 25.4711 38.4815 25.0822ZM19.5075 27.4158C15.0389 27.4158 11.4172 23.8975 11.4172 19.5566C11.4172 15.2156 15.0389 11.6973 19.5075 11.6973C23.976 11.6973 27.5978 15.2156 27.5978 19.5566C27.5978 23.8975 23.976 27.4158 19.5075 27.4158Z" fill="#FF5C00" fill-opacity="0.35"/>
</svg>
