<svg width="24" height="24" viewBox="0 0 24 24" fill="none" xmlns="http://www.w3.org/2000/svg">
<path d="M22.9023 5.81639C22.6406 4.7078 21.8695 3.8347 20.8905 3.53841C19.1159 3 12 3 12 3C12 3 4.88415 3 3.10953 3.53841C2.13049 3.83475 1.3594 4.7078 1.09769 5.81639C0.622192 7.82578 0.622192 12.0182 0.622192 12.0182C0.622192 12.0182 0.622192 16.2106 1.09769 18.22C1.3594 19.3286 2.13049 20.1653 3.10953 20.4616C4.88415 21 12 21 12 21C12 21 19.1158 21 20.8905 20.4616C21.8695 20.1653 22.6406 19.3286 22.9023 18.22C23.3778 16.2106 23.3778 12.0182 23.3778 12.0182C23.3778 12.0182 23.3778 7.82578 22.9023 5.81639ZM9.6727 15.8246V8.2118L15.6202 12.0183L9.6727 15.8246Z" fill="#FF5C00"/>
</svg>
